# xmcd
#
# Track frame offsets: 
#        150
#        67032
#        79365
#        105367
#        115973
#        129405
#        158312
#        175036
#
# Disc length: 2824 seconds
#
# Revision: 0
# Processed by: cddbd v1.5.2PL0 Copyright (c) Steve Scherf et al.
# Submitted via: ExactAudioCopyFreeDBPlugin 1.0
#
DISCID=5b0b0608
DTITLE=Bernat Vivancos - Blanc (Choral Works) cd1 - Sigvards Klava and L
DTITLE=atvian Radio Choir
DYEAR=2011
DGENRE=Avantgarde
TTITLE0=Obriu-me els llavis, Senyor
TTITLE1=Messe aux sons des cloches, Kyrie
TTITLE2=Messe aux sons des cloches, Gloria
TTITLE3=Messe aux sons des cloches, Sanctus
TTITLE4=Messe aux sons des cloches, Agnus De
TTITLE5=Bubbles
TTITLE6=El cant dels ocells
TTITLE7=A Child is born
EXTD=
EXTT0=
EXTT1=
EXTT2=
EXTT3=
EXTT4=
EXTT5=
EXTT6=
EXTT7=
PLAYORDER=
